<?xml version="1.0" encoding="UTF-8"?>
<svg width="806px" height="94px" viewBox="0 0 806 94" version="1.1" xmlns="http://www.w3.org/2000/svg" xmlns:xlink="http://www.w3.org/1999/xlink">
    <title>logo</title>
    <g id="Page-1" stroke="none" stroke-width="1" fill="none" fill-rule="evenodd">
        <g id="logo" fill="#fff" fill-rule="nonzero">
            <polygon  id="Path" points="724.9 40.6 724.9 20.2 713.3 36.7 694 30.4 706.1 47 694.2 63.5 713.3 57.2 724.9 73.8 724.9 53.3 744.4 47 724.9 40.6"></polygon>
            <path d="M762.6,0 L725.9,0 L768.7,47 L725.9,94 L762.6,94 L805.4,47 L762.6,0 Z M41.6,27.5 C47.4,27.5 53.1,30.3 56.9,35 L58.3,36.7 L76.2,24.4 L74.6,22.4 C66.7,12.5 54.6,6.8 41.6,6.8 C18.7,6.8 0,24.7 0,46.6 C0,68.5 18.7,86.4 41.6,86.4 C54.5,86.4 66.5,80.8 74.4,71.1 L76,69.1 L58.1,56.8 L56.7,58.5 C52.8,63.2 47.3,65.9 41.5,65.9 C30.9,65.9 21.9,57.1 21.9,46.7 C22,36.3 31,27.5 41.6,27.5 L41.6,27.5 Z M233.9,51.4 L201.5,9 L180.9,9 L180.9,84 L200.9,84 L200.9,42 L231.1,84 L253.9,84 L253.9,9 L233.9,9 L233.9,51.4 L233.9,51.4 Z M310.9,62.4 C310.9,63 310.1,63.1 309.7,63.1 C309.4,63.1 308.8,63 308.5,62.3 L291.9,9 L268.9,9 L293.4,84 L326.1,84 L350.6,9 L327.6,9 L310.9,62.4 L310.9,62.4 Z M497.1,53.4 C505.1,48.8 509.7,40.4 509,31.2 C508.1,18.7 497.2,9.1 484.2,9.1 L445.9,9.1 L445.9,84.1 L465.9,84.1 L465.9,57.1 L474.9,57.1 C475.8,57.1 476.6,57.2 477.2,58 L490.1,84.1 L512.6,84.1 L497.1,53.4 L497.1,53.4 Z M483.6,37 L466,37 L466,29 L483.6,29 C486,29 488,30.6 488,33 C488,35.4 486,37 483.6,37 Z M607.9,84 L667.9,84 L667.9,64 L627.9,64 L627.9,55 L663.9,55 L663.9,37 L627.9,37 L627.9,29 L667.9,29 L667.9,9 L607.9,9 L607.9,84 Z M562.7,37.3 C552,34.9 548.9,33.3 548.9,29.8 L548.9,29.6 C548.9,26.8 551,24.6 556.2,24.6 C563.1,24.6 568.7,26.8 576.2,31.3 L588.2,17.1 C579.8,10.4 569.7,6.8 556.6,6.8 C538,6.8 526.9,17.2 526.9,31.6 L526.9,31.8 C526.9,47.7 540,52.4 556.5,56.1 C567,58.5 569.9,60.3 569.9,63.5 L569.9,63.7 C569.9,67 566.2,69 560.4,69 C551.4,69 542.6,65.8 535,59.7 L522.9,74 C532.4,82.5 546.2,86.8 559.9,86.8 C578.7,86.8 591.9,77.4 591.9,61.6 L591.9,61.4 C591.9,46.9 580.5,41.2 562.7,37.3 Z M124.8,6.9 C102.4,6.9 84.2,24.8 84.2,46.7 C84.2,68.7 102.4,86.5 124.8,86.5 C147.2,86.5 165.4,68.6 165.4,46.7 C165.4,24.7 147.2,6.9 124.8,6.9 L124.8,6.9 Z M124.8,65.7 C114.3,65.7 105.8,57.2 105.8,46.7 C105.8,36.2 114.3,27.7 124.8,27.7 C135.3,27.7 143.8,36.2 143.8,46.7 C143.8,57.2 135.3,65.7 124.8,65.7 L124.8,65.7 Z M364.9,84 L424.9,84 L424.9,64 L384.9,64 L384.9,55 L420.9,55 L420.9,37 L384.9,37 L384.9,29 L424.9,29 L424.9,9 L364.9,9 L364.9,84 Z" id="Shape"></path>
        </g>
    </g>
</svg>